<svg width="74" height="74" viewBox="0 0 74 74" fill="none" xmlns="http://www.w3.org/2000/svg">
<path d="M36.9981 41.008C36.5973 41.008 36.1964 40.9155 35.8264 40.6997L8.6005 24.9439C7.4905 24.2964 7.12044 22.8779 7.76794 21.7679C8.41544 20.6579 9.80294 20.2879 10.9438 20.9354L36.9981 36.013L62.8978 21.028C64.0078 20.3805 65.4261 20.7814 66.0736 21.8605C66.7211 22.9705 66.3206 24.3888 65.2414 25.0363L38.2006 40.6997C37.7998 40.8847 37.3989 41.008 36.9981 41.008Z" fill="#2639ED"/>
<path d="M37 68.9433C35.7358 68.9433 34.6875 67.895 34.6875 66.6308V38.665C34.6875 37.4008 35.7358 36.3525 37 36.3525C38.2642 36.3525 39.3125 37.4008 39.3125 38.665V66.6308C39.3125 67.895 38.2642 68.9433 37 68.9433Z" fill="#2639ED"/>
<path d="M36.9966 70.1464C34.1908 70.1464 31.5083 69.4989 29.4733 68.3581L13.0083 59.2318C8.53743 56.7651 5.02246 50.8139 5.02246 45.6956V28.244C5.02246 23.1256 8.53743 17.2058 13.0083 14.7083L29.4733 5.58154C33.6666 3.2382 40.2649 3.2382 44.4891 5.58154L60.9541 14.7083C65.4249 17.175 68.9399 23.1256 68.9399 28.244V39.5289C68.9399 40.7931 67.8916 41.8414 66.6274 41.8414C65.3633 41.8414 64.3149 40.7931 64.3149 39.5289V28.244C64.3149 24.8523 61.6941 20.4125 58.7341 18.7783L42.2691 9.65157C39.4633 8.07907 34.5608 8.07907 31.7549 9.65157L15.2899 18.7783C12.2991 20.4433 9.7091 24.8523 9.7091 28.244V45.6956C9.7091 49.0873 12.3299 53.5276 15.2899 55.1618L31.7549 64.2881C34.4683 65.7989 39.5866 65.7989 42.2691 64.2881C43.3791 63.6714 44.7974 64.0726 45.4141 65.1826C46.0308 66.2926 45.6299 67.7106 44.5199 68.3273C42.4849 69.4989 39.8024 70.1464 36.9966 70.1464Z" fill="#2639ED"/>
<path d="M59.2 68.2958C52.4783 68.2958 47.0208 62.8383 47.0208 56.1167C47.0208 49.395 52.4783 43.9375 59.2 43.9375C65.9216 43.9375 71.3791 49.395 71.3791 56.1167C71.3791 62.8383 65.9216 68.2958 59.2 68.2958ZM59.2 48.5625C55.0375 48.5625 51.6458 51.9542 51.6458 56.1167C51.6458 60.2792 55.0375 63.6708 59.2 63.6708C63.3625 63.6708 66.7541 60.2792 66.7541 56.1167C66.7541 51.9542 63.3625 48.5625 59.2 48.5625Z" fill="#2639ED"/>
<path d="M70.9151 70.1459C70.3293 70.1459 69.7434 69.93 69.2809 69.4675L66.1976 66.3842C65.3034 65.49 65.3034 64.0097 66.1976 63.1155C67.0918 62.2214 68.5718 62.2214 69.4659 63.1155L72.5493 66.1989C73.4434 67.093 73.4434 68.5734 72.5493 69.4675C72.0868 69.93 71.5009 70.1459 70.9151 70.1459Z" fill="#2639ED"/>
</svg>
