<svg width="74" height="74" viewBox="0 0 74 74" fill="none" xmlns="http://www.w3.org/2000/svg">
<path d="M27.7529 54.7289C27.4137 54.7289 27.0437 54.6364 26.7354 54.4822C24.3612 53.2797 22.3262 51.4914 20.8462 49.2714C19.6129 47.4214 19.6129 45.0472 20.8462 43.1972C22.3262 40.9772 24.3612 39.1889 26.7354 38.0172C27.8762 37.4314 29.2637 37.9247 29.8495 39.0655C30.4354 40.2064 29.9729 41.5939 28.8012 42.1797C27.1362 43.0122 25.7179 44.2764 24.7004 45.818C24.5154 46.0955 24.5154 46.4655 24.7004 46.7739C25.7179 48.3155 27.1362 49.5797 28.8012 50.4122C29.942 50.998 30.4045 52.3855 29.8495 53.5264C29.4179 54.2664 28.5854 54.7289 27.7529 54.7289Z" fill="#FF007A"/>
<path d="M46.8951 54.7289C46.0317 54.7289 45.2301 54.2664 44.8292 53.4647C44.2434 52.3239 44.7059 50.9364 45.8776 50.3505C47.5426 49.518 48.9609 48.2539 49.9784 46.7122C50.1634 46.4347 50.1634 46.0647 49.9784 45.7564C48.9609 44.2147 47.5426 42.9505 45.8776 42.118C44.7367 41.5322 44.2742 40.1447 44.8292 39.0039C45.4151 37.863 46.8026 37.4005 47.9434 37.9555C50.3176 39.158 52.3526 40.9464 53.8326 43.1664C55.0659 45.0164 55.0659 47.3905 53.8326 49.2405C52.3526 51.4605 50.3176 53.2489 47.9434 54.4205C47.5734 54.6364 47.2342 54.7289 46.8951 54.7289Z" fill="#FF007A"/>
<path d="M46.25 70.1458H27.75C11.0075 70.1458 3.85419 62.9925 3.85419 46.25V27.75C3.85419 11.0075 11.0075 3.85416 27.75 3.85416H46.25C62.9925 3.85416 70.1459 11.0075 70.1459 27.75V46.25C70.1459 62.9925 62.9925 70.1458 46.25 70.1458ZM27.75 8.47916C13.5359 8.47916 8.47919 13.5358 8.47919 27.75V46.25C8.47919 60.4642 13.5359 65.5208 27.75 65.5208H46.25C60.4642 65.5208 65.5209 60.4642 65.5209 46.25V27.75C65.5209 13.5358 60.4642 8.47916 46.25 8.47916H27.75Z" fill="#FF007A"/>
<path d="M6.87726 27.01C5.61309 27.01 4.56476 25.9617 4.56476 24.6975C4.56476 23.4333 5.58226 22.385 6.87726 22.385L66.139 22.3542C67.4032 22.3542 68.4515 23.4025 68.4515 24.6667C68.4515 25.9308 67.434 26.9792 66.139 26.9792L6.87726 27.01Z" fill="#FF007A"/>
</svg>
