<svg width="74" height="74" viewBox="0 0 74 74" fill="none" xmlns="http://www.w3.org/2000/svg">
<path d="M31.1734 55.9616H19.4876C18.2234 55.9616 17.1751 54.9132 17.1751 53.6491V37.8624C17.1751 34.6557 19.7959 32.0346 23.0026 32.0346H31.1734C32.4376 32.0346 33.4859 33.0829 33.4859 34.3471V53.6179C33.4859 54.9129 32.4376 55.9616 31.1734 55.9616ZM21.8001 51.3366H28.8609V36.6907H23.0026C22.3551 36.6907 21.8001 37.2146 21.8001 37.8929V51.3366Z" fill="#00DA71"/>
<path d="M42.8262 55.9616H31.1404C29.8763 55.9616 28.8279 54.9132 28.8279 53.6491V23.8638C28.8279 20.6572 31.4487 18.0363 34.6554 18.0363H39.3421C42.5487 18.0363 45.1696 20.6572 45.1696 23.8638V53.6491C45.1387 54.9132 44.1212 55.9616 42.8262 55.9616ZM33.4837 51.3366H40.5446V23.8638C40.5446 23.2163 40.0204 22.6613 39.3421 22.6613H34.6554C34.0079 22.6613 33.4529 23.1855 33.4529 23.8638V51.3366H33.4837Z" fill="#00DA71"/>
<path d="M54.5152 55.9616H42.8293C41.5652 55.9616 40.5168 54.9132 40.5168 53.6491V39.6196C40.5168 38.3554 41.5652 37.3071 42.8293 37.3071H51.0002C54.2068 37.3071 56.8277 39.9279 56.8277 43.1346V53.6491C56.8277 54.9132 55.8102 55.9616 54.5152 55.9616ZM45.1418 51.3366H52.2027V43.1346C52.2027 42.4871 51.6785 41.9321 51.0002 41.9321H45.1418V51.3366Z" fill="#00DA71"/>
<path d="M46.25 70.1458H27.75C11.0075 70.1458 3.85419 62.9925 3.85419 46.25V27.75C3.85419 11.0075 11.0075 3.85417 27.75 3.85417H46.25C62.9925 3.85417 70.1459 11.0075 70.1459 27.75V46.25C70.1459 62.9925 62.9925 70.1458 46.25 70.1458ZM27.75 8.47917C13.5359 8.47917 8.47919 13.5358 8.47919 27.75V46.25C8.47919 60.4642 13.5359 65.5208 27.75 65.5208H46.25C60.4642 65.5208 65.5209 60.4642 65.5209 46.25V27.75C65.5209 13.5358 60.4642 8.47917 46.25 8.47917H27.75Z" fill="#00DA71"/>
</svg>
